<svg width="17" height="20" viewBox="0 0 17 20" fill="none" xmlns="http://www.w3.org/2000/svg">
<path d="M3.48418 9.71446H1.57709C1.18894 9.71446 0.875 10.0305 0.875 10.419V18.4205C0.875 18.809 1.18894 19.125 1.57709 19.125H15.4229C15.8111 19.125 16.125 18.809 16.125 18.4205V10.419C16.125 10.0305 15.8111 9.71446 15.4229 9.71446H13.5158V5.86332C13.5158 4.20805 12.8903 2.95753 11.9452 2.12217C11.0025 1.28889 9.74915 0.875 8.5 0.875C7.25085 0.875 5.99752 1.28889 5.05478 2.12217C4.10969 2.95753 3.48418 4.20805 3.48418 5.86332V9.71446ZM12.1116 5.86332V9.71446H4.88837V5.86332C4.88837 4.65901 5.34129 3.76483 6.01385 3.17039C6.68876 2.57387 7.59228 2.27287 8.5 2.27287C9.40771 2.27287 10.3112 2.57387 10.9862 3.17039C11.6587 3.76483 12.1116 4.65901 12.1116 5.86332ZM2.27919 17.7159V11.1235H14.7208V17.7159H2.27919Z" fill="#4F4F4F" stroke="#4F4F4F" stroke-width="0.25"/>
<path d="M8.94528 13C8.71678 13.0024 8.49531 13.0804 8.31468 13.2222C8.13404 13.364 8.00415 13.5618 7.94483 13.7854C7.88551 14.009 7.90001 14.2461 7.98612 14.4605C8.07224 14.675 8.22523 14.855 8.42176 14.9731V15.6521C8.42176 15.7927 8.47692 15.9277 8.5751 16.0271C8.67327 16.1266 8.80643 16.1825 8.94528 16.1825C9.08412 16.1825 9.21728 16.1266 9.31546 16.0271C9.41363 15.9277 9.46879 15.7927 9.46879 15.6521V14.9731C9.66532 14.855 9.81832 14.675 9.90443 14.4605C9.99054 14.2461 10.005 14.009 9.94572 13.7854C9.8864 13.5618 9.75651 13.364 9.57587 13.2222C9.39524 13.0804 9.17378 13.0024 8.94528 13Z" fill="#4F4F4F"/>
</svg>
