<?xml version="1.0" encoding="utf-8"?>
<!-- Generator: Adobe Illustrator 23.0.2, SVG Export Plug-In . SVG Version: 6.00 Build 0)  -->
<svg version="1.1" id="Layer_1" xmlns="http://www.w3.org/2000/svg" xmlns:xlink="http://www.w3.org/1999/xlink" x="0px" y="0px"
	 viewBox="0 0 24 24" style="enable-background:new 0 0 24 24;" xml:space="preserve">
<style type="text/css">
	.st0{fill:none;}
	.st1{stroke:#000000;stroke-width:0.65;stroke-miterlimit:10;}
</style>
<rect y="0" class="st0" width="24" height="24"/>
<path class="st1" d="M16.6,0.3c-1.8,0-3.5,0.5-4.8,1.4c-0.1,0.1-0.3,0.2-0.5,0.2c-0.2,0-0.4-0.1-0.5-0.2c-0.6-0.5-1.2-0.8-1.9-1.1
	C8.2,0.4,7.4,0.3,6.6,0.3c-3.5,0-6.3,2.9-6.3,6.4c-0.1,1.8,0.8,3.6,2.3,5c0.5,0.4,0.9,0.9,1.2,1.5C4,13.8,4.1,14.4,4,15l-0.1,0.6
	l-0.2,1.3c-0.1,0.5-0.1,1.1-0.2,1.6c0,1.4,0.3,2.7,0.9,4c0.2,0.5,0.7,0.9,1.3,1.1c0.2,0.1,0.5,0.1,0.7,0.1c0.5,0,0.9-0.1,1.3-0.4
	c0.4-0.2,0.6-0.5,0.8-0.9l2.8-5.4c0.1-0.1,0.2-0.2,0.3-0.3c0.1-0.1,0.3-0.1,0.4-0.1c0.1,0,0.3,0,0.4,0.1c0.1,0.1,0.2,0.2,0.3,0.3
	l2.8,5.4c0.1,0.2,0.3,0.4,0.5,0.6c0.2,0.2,0.4,0.3,0.7,0.4c0.3,0.1,0.6,0.2,0.9,0.2c0.3,0,0.6,0,0.9-0.1c0.3-0.1,0.5-0.2,0.7-0.4
	c0.2-0.2,0.4-0.4,0.5-0.6c0.9-1.8,1.1-3.7,0.8-5.6l-0.2-1.3l-0.1-0.6c-0.1-0.6,0-1.3,0.2-1.9c0.2-0.6,0.6-1.2,1.1-1.7
	c1.4-1.2,2.2-2.9,2.1-4.6C23.7,3.2,20.5,0.3,16.6,0.3z M20.4,10.5c-0.7,0.6-1.2,1.4-1.5,2.2c-0.3,0.8-0.4,1.6-0.3,2.5
	c0,0.2,0,0.5,0.1,0.7l0.2,1.3c0.3,1.7,0.1,3.4-0.7,4.9c-0.1,0.1-0.2,0.3-0.4,0.3c-0.1,0-0.2,0.1-0.3,0c-0.1,0-0.2,0-0.3-0.1
	c-0.1-0.1-0.2-0.2-0.3-0.3l0,0l-2.9-5.4c-0.2-0.3-0.5-0.6-0.8-0.8c-0.4-0.2-0.8-0.3-1.3-0.3c-0.4,0-0.9,0.1-1.3,0.3
	c-0.4,0.2-0.7,0.5-0.8,0.8l-2.8,5.3l0,0.1c0,0.1-0.1,0.1-0.1,0.2c-0.1,0.1-0.1,0.1-0.2,0.1c-0.1,0-0.2,0.1-0.2,0.1
	c-0.1,0-0.2,0-0.2,0C6.2,22.3,6,22.1,6,22c-0.5-1.1-0.8-2.3-0.8-3.5c0-0.5,0-1,0.2-1.4l0.2-1.3c0-0.2,0.1-0.5,0.1-0.7
	c0.1-0.8,0-1.6-0.3-2.3c-0.3-0.7-0.8-1.4-1.5-2c-0.6-0.5-1.1-1.2-1.4-1.9C2.1,8.2,1.9,7.5,1.9,6.8c0-2.8,2.1-5.1,4.7-5.1
	c0.6,0,1.1,0.1,1.7,0.2c0.5,0.2,1,0.4,1.4,0.8c0.4,0.4,1,0.6,1.6,0.6c0.6,0,1.2-0.2,1.6-0.5c1-0.8,2.4-1.2,3.7-1.1
	c3,0,5.5,2.3,5.5,5.1C22.2,8.1,21.5,9.5,20.4,10.5L20.4,10.5z"/>
</svg>
