<svg width="20" height="10" viewBox="0 0 20 10" fill="none" xmlns="http://www.w3.org/2000/svg">
<path d="M19.1667 1.66667C19.1667 2.58333 18.4167 3.33333 17.5 3.33333C17.35 3.33333 17.2084 3.31667 17.075 3.275L14.1084 6.23333C14.15 6.36667 14.1667 6.51667 14.1667 6.66667C14.1667 7.58333 13.4167 8.33333 12.5 8.33333C11.5834 8.33333 10.8334 7.58333 10.8334 6.66667C10.8334 6.51667 10.85 6.36667 10.8917 6.23333L8.76671 4.10833C8.63337 4.15 8.48337 4.16667 8.33337 4.16667C8.18337 4.16667 8.03337 4.15 7.90004 4.10833L4.10837 7.90833C4.15004 8.04167 4.16671 8.18333 4.16671 8.33333C4.16671 9.25 3.41671 10 2.50004 10C1.58337 10 0.833374 9.25 0.833374 8.33333C0.833374 7.41667 1.58337 6.66667 2.50004 6.66667C2.65004 6.66667 2.79171 6.68333 2.92504 6.725L6.72504 2.93333C6.68337 2.8 6.66671 2.65 6.66671 2.5C6.66671 1.58333 7.41671 0.833333 8.33337 0.833333C9.25004 0.833333 10 1.58333 10 2.5C10 2.65 9.98337 2.8 9.94171 2.93333L12.0667 5.05833C12.2 5.01667 12.35 5 12.5 5C12.65 5 12.8 5.01667 12.9334 5.05833L15.8917 2.09167C15.85 1.95833 15.8334 1.81667 15.8334 1.66667C15.8334 0.75 16.5834 1.22621e-07 17.5 1.29758e-07C18.4167 1.36895e-07 19.1667 0.75 19.1667 1.66667Z" fill="#2B95FE"/>
</svg>
